<svg width="288" height="46pt" viewBox="0 0 216 46" xmlns:xlink="http://www.w3.org/1999/xlink" xmlns="http://www.w3.org/2000/svg"><defs><path d="M5.844-6.953v4.484c0 .856-.23 1.5-.688 1.938-.46.437-1.136.656-2.031.656-.887 0-1.559-.219-2.016-.656C.65-.97.422-1.613.422-2.47v-4.484H2v4.016c0 .562.086.953.266 1.171.175.22.46.329.859.329.406 0 .695-.11.875-.329.176-.218.266-.609.266-1.171v-4.016zm0 0" id="j"/><path d="M3.734-2.922C2.547-4.055 1.801-5.406 1.5-6.969a18.852 18.852 0 0 1-.25-4.875c.133-1.676.234-3.242.297-4.703l.484-17.375c.051-1.883.078-3.8.078-5.75 0-1.945.11-3.828.329-5.64.218-1.813.675-3.422 1.374-4.829.708-1.406 1.79-2.488 3.25-3.25 1.458-.757 3.43-1.082 5.922-.968 1.301.054 2.883.093 4.75.125 1.864.023 3.805.101 5.828.234 2.032.137 3.993.422 5.891.86 1.895.43 3.547 1.117 4.953 2.062 1.407.95 2.38 2.234 2.922 3.86.75 2.156.703 3.843-.14 5.062-.836 1.218-2.063 2.09-3.688 2.61a19.945 19.945 0 0 1-5.14.89c-1.813.074-3.372.058-4.672-.047a88.814 88.814 0 0 1-3-.234c-1.137-.114-2.196-.086-3.172.078-.97.156-1.7.59-2.188 1.297-.75 1.085-1.023 1.98-.812 2.687.218.7.734 1.234 1.546 1.61a7.06 7.06 0 0 0 2.594.64c1.946.168 3.676.453 5.188.86 1.52.406 2.644 1.18 3.375 2.312.726 1.137.906 2.867.531 5.187-.543 3.305-1.855 5.633-3.938 6.985-2.085 1.355-4.746 1.515-7.984.484 0 1.188-.086 2.73-.25 4.625a35.17 35.17 0 0 1-.984 5.688c-.48 1.886-1.184 3.453-2.11 4.703C11.566-.54 10.391.063 8.954.03 7.523.008 5.784-.973 3.733-2.922zm0 0" id="a"/><path d="M6.25-.484c-2.117-.594-3.527-1.61-4.234-3.047-.7-1.438-.97-3.086-.813-4.953a31.623 31.623 0 0 1 1.016-5.594c.52-1.863.969-3.555 1.344-5.078.976-4 2.062-7.985 3.25-11.953A431.516 431.516 0 0 1 10.546-43c1.082-3.352 2.648-6.07 4.703-8.156 2.063-2.082 4.984-3.176 8.766-3.282 2.113-.062 3.843.438 5.187 1.5 1.352 1.055 2.445 2.434 3.281 4.141a36.934 36.934 0 0 1 2.157 5.39 488.761 488.761 0 0 0 1.703 5.266l9.5 26.703c.644 1.782.941 3.376.89 4.782-.054 1.406-.867 2.761-2.437 4.062C42.734-1.352 41.219-.785 39.75-.89c-1.46-.113-2.758-1.004-3.89-2.671-.544-.813-.993-1.836-1.344-3.079a62.455 62.455 0 0 0-1.125-3.656c-.407-1.195-.993-2.094-1.75-2.687-.106-.102-.766-.207-1.985-.313-1.218-.113-2.625-.21-4.218-.297a59.089 59.089 0 0 0-4.391-.078c-1.324.031-2.149.184-2.469.453-.762.649-1.293 1.672-1.594 3.078a94.778 94.778 0 0 0-.797 4.344c-.242 1.492-.714 2.668-1.421 3.531-.97 1.188-2.266 1.891-3.891 2.11C9.25.05 7.707-.055 6.25-.484zM22.313-24.75a29.286 29.286 0 0 0 2.234-.39 38.985 38.985 0 0 1 2.14-.422c-.375-1.083-.742-2.16-1.093-3.235a312.915 312.915 0 0 1-1.016-3.25c-.375 1.188-.758 2.39-1.14 3.61-.375 1.218-.75 2.449-1.125 3.687zm0 0" id="c"/><path d="M3.813-1.547c-.918-1.02-1.57-2.344-1.954-3.969-.375-1.625-.578-3.367-.609-5.234a60.437 60.437 0 0 1 .172-5.438c.133-1.757.226-3.257.281-4.5.102-1.457.156-3.226.156-5.312 0-2.082.067-4.285.204-6.61.132-2.331.414-4.609.843-6.828.438-2.218 1.102-4.164 2-5.843.895-1.676 2.098-2.89 3.61-3.64 1.625-.813 3.234-1.032 4.828-.657 1.594.375 3.066 1.094 4.422 2.156 1.351 1.055 2.437 2.258 3.25 3.61a51.79 51.79 0 0 1 4.015 7.718 50.206 50.206 0 0 0 4.094 7.782 62.746 62.746 0 0 0-.36-4.422 44.675 44.675 0 0 1-.28-5.032c0-1.707.203-3.332.609-4.875.406-1.539 1.117-2.851 2.14-3.937 1.352-1.406 2.786-2.117 4.297-2.14 1.52-.032 2.875.452 4.063 1.452 1.187 1 1.89 2.422 2.11 4.266.382 2.492.722 5.328 1.015 8.516.3 3.187.437 6.46.406 9.812a67.582 67.582 0 0 1-.781 9.75c-.48 3.137-1.29 5.918-2.422 8.344-1.242 2.656-2.606 4.215-4.094 4.672-1.492.46-3.047.18-4.672-.844-1.625-1.031-3.226-2.52-4.797-4.469a64.19 64.19 0 0 1-4.422-6.25 154.6 154.6 0 0 1-3.64-6.156 302.162 302.162 0 0 0-2.39-4.234c-.118.543-.325 1.652-.626 3.328-.293 1.68-.683 3.601-1.172 5.765a80.032 80.032 0 0 1-1.703 6.422c-.648 2.106-1.39 3.914-2.234 5.422C9.336-1.41 8.395-.46 7.344-.078c-1.055.375-2.23-.113-3.532-1.469zm0 0" id="d"/><path d="M18.422-1.063C14.797-2.25 11.613-4.14 8.875-6.734c-2.73-2.594-4.766-5.676-6.11-9.25C1.41-19.711.923-23.43 1.298-27.141A27.47 27.47 0 0 1 4.53-37.609c1.79-3.27 4.117-6.149 6.985-8.641a28.14 28.14 0 0 1 9.75-5.516 37.993 37.993 0 0 1 4.859-1.25c1.79-.351 3.52-.46 5.188-.328 1.675.137 3.066.696 4.171 1.672 1.114.969 1.727 2.559 1.844 4.766.102 2.117-.36 3.867-1.39 5.25-1.024 1.375-2.36 2.496-4.016 3.36a30.682 30.682 0 0 1-5.235 2.155c-1.835.563-3.539 1.09-5.109 1.578a22.804 22.804 0 0 0-3.437 4.22c-1 1.562-1.653 3.132-1.953 4.702-.305 1.575-.09 3.04.64 4.391.738 1.344 2.16 2.48 4.266 3.406 1.3.532 2.664.907 4.093 1.125 1.438.219 2.817.438 4.141.657 1.32.218 2.508.585 3.563 1.093a4.91 4.91 0 0 1 2.359 2.36c.52 1.054.672 2.578.453 4.578-.219 2.168-.922 3.86-2.11 5.078-1.187 1.21-2.636 2.031-4.343 2.469-1.71.43-3.512.57-5.406.437a23.523 23.523 0 0 1-5.422-1.016zm0 0" id="e"/><path d="M11.516-1.547C10.172-.242 8.82.258 7.469-.03c-1.356-.301-2.524-1.047-3.5-2.235-.969-1.195-1.59-2.5-1.86-3.906-.543-2.695-.746-5.14-.609-7.328.133-2.195.176-4.676.125-7.438a679.733 679.733 0 0 0-.25-10.984 378.745 378.745 0 0 1-.156-10.922c0-1.457.05-2.93.156-4.422.113-1.488.492-2.828 1.14-4.015.645-1.188 1.755-2.078 3.329-2.672 2.164-.813 3.922-1 5.265-.563 1.352.43 2.368 1.266 3.047 2.516.676 1.242 1.125 2.727 1.344 4.453.219 1.73.297 3.527.234 5.39a63.59 63.59 0 0 1-.359 5.282 221.231 221.231 0 0 0-.438 4.094 51.028 51.028 0 0 1 5.297-.032c1.758.075 3.508.11 5.25.11a156.511 156.511 0 0 0-.812-5.797 47.876 47.876 0 0 1-.578-6.078c-.055-2.031.164-3.969.656-5.813.426-1.562 1.258-2.992 2.5-4.297 1.25-1.3 2.695-2.113 4.344-2.437 1.656-.32 3.238.168 4.75 1.469.926.75 1.578 2.156 1.953 4.218.375 2.055.578 4.485.61 7.297a139.87 139.87 0 0 1-.204 8.891A187.55 187.55 0 0 1 38-26.203c-.293 2.918-.559 5.484-.797 7.703l-.531 4.875c-.055.75-.188 1.777-.406 3.078a25.425 25.425 0 0 1-.985 3.906c-.43 1.293-.98 2.387-1.656 3.282-.668.886-1.465 1.32-2.39 1.296-.919-.03-1.97-.722-3.157-2.078-1.305-1.507-2.062-3.332-2.281-5.468a31.507 31.507 0 0 1 .047-6.532c.238-2.218.39-4.191.453-5.922-.875.106-2.016.184-3.422.235-1.406.055-2.79.164-4.14.328-1.344.156-2.4.453-3.157.89-.969.544-1.43 1.356-1.375 2.438a45.6 45.6 0 0 1 0 3.735c-.055 1.292-.078 2.75-.078 4.374 0 1.626-.18 3.2-.531 4.72-.356 1.511-1.047 2.777-2.078 3.796zm0 0" id="f"/><path d="M17.688-.156c-2.325.207-4.5.14-6.532-.203-2.031-.352-3.765-1.176-5.203-2.47-1.43-1.3-2.437-3.194-3.031-5.687-.711-3.03-1.133-6.195-1.266-9.5-.136-3.3-.152-6.613-.047-9.937.114-3.32.118-6.524.016-9.61a102.82 102.82 0 0 0-.328-5.39 31.933 31.933 0 0 1 .047-5.734c.187-1.895.71-3.57 1.578-5.032a6.907 6.907 0 0 1 3.437-2.922c1.489-.593 3.114-.968 4.875-1.125a47.157 47.157 0 0 1 5.235-.203c1.726.024 3.27.032 4.625.032 1.789-.051 3.71-.036 5.765.046 2.051.086 4.051.356 6 .813 1.946.46 3.692 1.246 5.235 2.36 1.539 1.105 2.718 2.655 3.531 4.655.914 2.22 1.117 4.493.61 6.813-.512 2.324-1.446 4.516-2.797 6.578-1.356 2.055-2.844 3.809-4.47 5.266 1.946 1.843 3.243 4.12 3.891 6.828.657 2.7.75 5.445.282 8.234-.461 2.782-1.446 5.23-2.953 7.344-2.106 2.918-4.852 5.027-8.235 6.328-3.387 1.293-6.808 2.133-10.265 2.516zM14.203-37.25c.156.117.598.172 1.328.172.739 0 1.473-.04 2.203-.125.727-.082 1.172-.125 1.328-.125 1.133-.102 2.38-.317 3.735-.64 1.351-.321 2.351-1.024 3-2.11.488-.813.445-1.516-.125-2.11-.563-.593-1.414-1.066-2.547-1.421a15.784 15.784 0 0 0-3.61-.657c-1.273-.082-2.406 0-3.406.25-1 .243-1.636.684-1.906 1.328-.055.118-.11.606-.172 1.47-.054.866-.07 1.718-.047 2.562.032.836.102 1.304.22 1.406zm-.484 25c1.289-.164 2.773-.422 4.453-.766 1.676-.351 3.191-.945 4.547-1.78 1.351-.845 2.218-2.024 2.593-3.548.383-1.457.208-2.55-.53-3.281-.731-.727-1.68-1.21-2.845-1.453a12.984 12.984 0 0 0-3.359-.297c-1.187.063-2.18.18-2.969.344-.78.156-1.386.64-1.812 1.453-.324.594-.477 1.484-.453 2.672.031 1.187.113 2.406.25 3.656.133 1.242.176 2.242.125 3zm0 0" id="g"/><path d="M3.531-6.953v4.984c0 .688-.187 1.211-.562 1.563-.375.355-.914.531-1.61.531C1.18.125 1 .098.813.047A2.106 2.106 0 0 1 .358-.11a4.549 4.549 0 0 1-.343-.188 1.93 1.93 0 0 1-.204-.172L-.266-.53.25-1.86c.32.312.617.468.89.468a.76.76 0 0 0 .579-.234c.156-.164.234-.41.234-.734v-4.594zm0 0" id="h"/><path d="M.188-3.484c0-1 .343-1.848 1.03-2.547.688-.696 1.516-1.047 2.485-1.047.969 0 1.79.351 2.469 1.047.676.687 1.016 1.539 1.016 2.547 0 1.023-.336 1.882-1 2.578C5.52-.22 4.69.125 3.703.125 2.68.125 1.836-.219 1.172-.906.516-1.594.188-2.453.188-3.484zm1.718 0c0 .367.051.699.157 1 .113.304.312.558.593.765.281.211.63.313 1.047.313.582 0 1.024-.203 1.328-.61.301-.406.453-.894.453-1.468 0-.563-.156-1.047-.468-1.454-.305-.406-.743-.609-1.313-.609-.574 0-1.015.203-1.328.61-.313.406-.469.89-.469 1.453zm0 0" id="i"/><path d="M43.734-2.766C41.954-1.023 40.328-.102 38.86 0c-1.46.102-2.773-.367-3.937-1.422-1.156-1.05-2.168-2.441-3.031-4.172a37.552 37.552 0 0 1-2.235-5.562 61.116 61.116 0 0 1-1.5-5.594 483.464 483.464 0 0 0-.89-4.11c-.438.118-1.184.258-2.235.422-1.054.157-2.07.344-3.047.563-.968.21-1.617.48-1.937.813-.387.375-.606 1.12-.656 2.234-.055 1.105-.133 1.93-.235 2.469a156.864 156.864 0 0 1-1.265 4.78 11.847 11.847 0 0 1-2.313 4.392c-1.406 1.68-3.015 2.667-4.828 2.968-1.813.293-3.508-.047-5.078-1.015-1.563-.977-2.727-2.47-3.484-4.47-.813-2.218-1.141-4.679-.985-7.39a76.93 76.93 0 0 1 .938-8.156c.468-2.727.78-5.227.937-7.5.27-3.727.32-7.55.156-11.469-.156-3.926.063-7.703.657-11.328.382-2.27 1.304-4.066 2.765-5.39 1.457-1.333 3.282-2.27 5.469-2.813 2.195-.54 4.566-.797 7.11-.766 2.538.024 5.066.278 7.578.766 2.519.492 4.832 1.125 6.937 1.906 2.113.782 3.848 1.61 5.203 2.485 2.863 1.836 4.914 3.996 6.156 6.484 1.25 2.492 1.805 5.09 1.672 7.797-.136 2.7-.883 5.36-2.234 7.984-1.356 2.625-3.168 4.992-5.438 7.094.97 1.523 2.063 3.367 3.282 5.531a39.652 39.652 0 0 1 3.047 6.844c.812 2.406 1.16 4.734 1.046 6.984-.105 2.243-1.023 4.2-2.75 5.875zM18.75-31a71.305 71.305 0 0 0 4.61-1.938 26.97 26.97 0 0 0 4.312-2.515c1.781-1.25 2.781-2.477 3-3.688.219-1.218-.078-2.328-.89-3.328-.813-1.008-1.923-1.797-3.329-2.36a9.631 9.631 0 0 0-4.39-.687c-1.188.055-2.172.164-2.954.328-.78.157-1.34.778-1.672 1.86-.324.969-.39 2.226-.203 3.766.196 1.542.47 3.085.813 4.624.351 1.543.586 2.856.703 3.938zm0 0" id="b"/><path d="M.5-6.953h2.484c.664 0 1.207.183 1.625.547.426.355.641.86.641 1.515 0 .512-.133.946-.39 1.297-.25.344-.594.586-1.032.719L6.218 0h-2L2.095-2.75V0H.5zM2.094-3.86H2.64c.101-.008.218-.032.343-.063a.865.865 0 0 0 .313-.156.686.686 0 0 0 .203-.266.864.864 0 0 0 .094-.422.918.918 0 0 0-.094-.437.717.717 0 0 0-.203-.266.75.75 0 0 0-.313-.14 1.19 1.19 0 0 0-.343-.063 4.263 4.263 0 0 0-.36-.016h-.187zm0 0" id="k"/><path d="M2.094-4.313V0H.5v-6.953h1.594l2.75 4.312h.031v-4.312h1.578V0H4.875L2.109-4.313zm0 0" id="l"/><path d="M4.031-6.953 6.844 0H5.14l-.516-1.39h-2.64L1.468 0H-.234l2.796-6.953zm.047 4.172-.766-2.016h-.015L2.516-2.78zm0 0" id="m"/><path d="M2.094-6.953v5.562h2.39V0H.5v-6.953zm0 0" id="n"/><path d="M2.094-6.953V0H.5v-6.953zm0 0" id="p"/><path d="M.063-5.563v-1.39h4.89v1.39H3.297V0H1.719v-5.563zm0 0" id="q"/><path d="m6.25 0-.328-4.125h-.047L4.453-.047h-.937L2.094-4.125h-.047L1.719 0H.14l.625-6.953h1.671l1.547 4.016 1.547-4.016h1.672L7.828 0zm0 0" id="r"/><path d="M4.484-6.953v1.39h-2.39v1.391h2.281v1.39H2.094v1.391h2.39V0H.5v-6.953zm0 0" id="s"/></defs><use xlink:href="#a" x="46.789" y="227.506" fill="#8c52ff" transform="matrix(.4661 0 0 .4661 22.878 -72.246)"/><use xlink:href="#b" x="82.161" y="227.506" fill="#8c52ff" transform="matrix(.4661 0 0 .4661 22.878 -72.246)"/><use xlink:href="#c" x="127.674" y="227.506" fill="#8c52ff" transform="matrix(.4661 0 0 .4661 22.878 -72.246)"/><use xlink:href="#d" x="173.268" y="227.506" fill="#8c52ff" transform="matrix(.4661 0 0 .4661 22.878 -72.246)"/><use xlink:href="#e" x="215.212" y="227.506" fill="#8c52ff" transform="matrix(.4661 0 0 .4661 22.878 -72.246)"/><use xlink:href="#f" x="251.314" y="227.506" fill="#8c52ff" transform="matrix(.4661 0 0 .4661 22.878 -72.246)"/><use xlink:href="#g" x="289.444" y="227.506" fill="#8c52ff" transform="matrix(.4661 0 0 .4661 22.878 -72.246)"/><use xlink:href="#a" x="44.35" y="225.068" fill="#fd7f32" transform="matrix(.4661 0 0 .4661 22.878 -72.246)"/><use xlink:href="#b" x="79.722" y="225.068" fill="#fd7f32" transform="matrix(.4661 0 0 .4661 22.878 -72.246)"/><use xlink:href="#c" x="125.236" y="225.068" fill="#fd7f32" transform="matrix(.4661 0 0 .4661 22.878 -72.246)"/><use xlink:href="#d" x="170.83" y="225.068" fill="#fd7f32" transform="matrix(.4661 0 0 .4661 22.878 -72.246)"/><use xlink:href="#e" x="212.773" y="225.068" fill="#fd7f32" transform="matrix(.4661 0 0 .4661 22.878 -72.246)"/><use xlink:href="#f" x="248.875" y="225.068" fill="#fd7f32" transform="matrix(.4661 0 0 .4661 22.878 -72.246)"/><use xlink:href="#g" x="287.006" y="225.068" fill="#fd7f32" transform="matrix(.4661 0 0 .4661 22.878 -72.246)"/><use xlink:href="#h" x="135.177" y="248.817" fill="#8c52ff" transform="matrix(.4661 0 0 .4661 22.878 -72.246)"/><use xlink:href="#i" x="141.925" y="248.817" fill="#8c52ff" transform="matrix(.4661 0 0 .4661 22.878 -72.246)"/><use xlink:href="#j" x="152.111" y="248.817" fill="#8c52ff" transform="matrix(.4661 0 0 .4661 22.878 -72.246)"/><use xlink:href="#k" x="161.177" y="248.817" fill="#8c52ff" transform="matrix(.4661 0 0 .4661 22.878 -72.246)"/><use xlink:href="#l" x="170.006" y="248.817" fill="#8c52ff" transform="matrix(.4661 0 0 .4661 22.878 -72.246)"/><use xlink:href="#m" x="179.763" y="248.817" fill="#8c52ff" transform="matrix(.4661 0 0 .4661 22.878 -72.246)"/><use xlink:href="#n" x="189.165" y="248.817" fill="#8c52ff" transform="matrix(.4661 0 0 .4661 22.878 -72.246)"/><use xlink:href="#o" x="196.722" y="248.817" fill="#8c52ff"/><use xlink:href="#p" x="201.82" y="248.817" fill="#8c52ff" transform="matrix(.4661 0 0 .4661 22.878 -72.246)"/><use xlink:href="#l" x="207.212" y="248.817" fill="#8c52ff" transform="matrix(.4661 0 0 .4661 22.878 -72.246)"/><use xlink:href="#q" x="216.968" y="248.817" fill="#8c52ff" transform="matrix(.4661 0 0 .4661 22.878 -72.246)"/><use xlink:href="#p" x="224.787" y="248.817" fill="#8c52ff" transform="matrix(.4661 0 0 .4661 22.878 -72.246)"/><use xlink:href="#r" x="230.179" y="248.817" fill="#8c52ff" transform="matrix(.4661 0 0 .4661 22.878 -72.246)"/><use xlink:href="#s" x="240.946" y="248.817" fill="#8c52ff" transform="matrix(.4661 0 0 .4661 22.878 -72.246)"/></svg>