<svg xmlns="http://www.w3.org/2000/svg" xmlns:xlink="http://www.w3.org/1999/xlink" width="279.29" height="42.886" viewBox="0 0 209.467 32.165">
    <defs>
        <path id="a" d="M2.89-2.25c-.93-.883-1.507-1.93-1.734-3.14A13.89 13.89 0 0 1 .97-9.14c.101-1.301.176-2.516.219-3.641l.375-13.422c.039-1.457.062-2.938.062-4.438 0-1.507.082-2.96.25-4.359.164-1.406.52-2.648 1.063-3.734.55-1.082 1.39-1.914 2.515-2.5 1.125-.582 2.649-.832 4.578-.75 1 .043 2.219.074 3.656.093 1.446.024 2.954.086 4.516.188a29.37 29.37 0 0 1 4.547.656c1.457.336 2.727.867 3.813 1.594 1.093.73 1.847 1.726 2.265 2.984.582 1.668.55 2.977-.094 3.922-.648.938-1.601 1.606-2.859 2a15.3 15.3 0 0 1-3.984.688c-1.399.062-2.594.054-3.594-.032a59.554 59.554 0 0 1-2.313-.187 9.589 9.589 0 0 0-2.453.062c-.75.125-1.312.461-1.687 1-.586.836-.793 1.524-.625 2.063.164.543.562.965 1.187 1.265a5.393 5.393 0 0 0 2.016.5c1.5.125 2.832.344 4 .657 1.176.312 2.047.906 2.61 1.781.562.875.695 2.215.405 4.016-.417 2.543-1.433 4.34-3.046 5.39-1.606 1.043-3.664 1.168-6.172.375 0 .918-.063 2.11-.188 3.578A27.025 27.025 0 0 1 11.281-5c-.375 1.46-.918 2.668-1.625 3.625-.71.96-1.62 1.426-2.734 1.406C5.816.008 4.472-.75 2.89-2.25Zm0 0"/>
        <path id="b" d="M33.781-2.125C32.406-.789 31.148-.082 30.016 0c-1.125.082-2.141-.281-3.047-1.094-.899-.812-1.68-1.883-2.344-3.218a29.243 29.243 0 0 1-1.719-4.297 47.9 47.9 0 0 1-1.156-4.329 874.764 874.764 0 0 0-.688-3.171c-.335.086-.914.187-1.734.312-.812.125-1.594.274-2.344.438-.75.168-1.25.375-1.5.625-.293.293-.46.87-.5 1.734-.043.855-.105 1.492-.187 1.906a87.531 87.531 0 0 1-.985 3.703 9.122 9.122 0 0 1-1.78 3.375c-1.087 1.305-2.329 2.07-3.735 2.297-1.399.23-2.703-.031-3.922-.781-1.21-.758-2.105-1.91-2.688-3.453-.625-1.707-.875-3.61-.75-5.703.125-2.094.364-4.192.72-6.297.35-2.113.593-4.047.718-5.797.207-2.883.25-5.844.125-8.875-.125-3.031.047-5.941.516-8.734.289-1.758 1-3.149 2.125-4.172 1.125-1.02 2.53-1.739 4.218-2.157 1.696-.414 3.524-.613 5.485-.593 1.969.023 3.922.218 5.86.593 1.944.376 3.733.868 5.358 1.47 1.633.605 2.973 1.241 4.016 1.906 2.219 1.43 3.805 3.105 4.766 5.03.957 1.919 1.383 3.923 1.281 6.016-.105 2.086-.68 4.141-1.719 6.172-1.043 2.024-2.445 3.844-4.203 5.469a86.998 86.998 0 0 1 2.547 4.266 30.723 30.723 0 0 1 2.344 5.297c.625 1.855.894 3.652.812 5.39-.086 1.73-.793 3.246-2.125 4.547zM14.484-23.938a52.798 52.798 0 0 0 3.563-1.5 21.892 21.892 0 0 0 3.328-1.953c1.375-.957 2.145-1.906 2.313-2.843.164-.946-.063-1.805-.688-2.578-.625-.77-1.484-1.376-2.578-1.813a7.505 7.505 0 0 0-3.375-.531c-.918.043-1.684.125-2.297.25-.605.125-1.031.605-1.281 1.437-.25.75-.305 1.727-.156 2.922.144 1.188.351 2.383.624 3.578.282 1.188.461 2.2.547 3.032zm0 0"/>
        <path id="c" d="M4.828-.375C3.191-.832 2.102-1.613 1.562-2.719 1.02-3.832.813-5.109.938-6.547c.125-1.445.383-2.89.782-4.328.394-1.438.738-2.742 1.031-3.922.758-3.082 1.598-6.16 2.516-9.234.914-3.07 1.875-6.133 2.875-9.188.843-2.593 2.054-4.691 3.64-6.297 1.582-1.601 3.836-2.445 6.766-2.53 1.633-.04 2.973.343 4.015 1.155 1.04.813 1.883 1.883 2.532 3.203.656 1.313 1.21 2.7 1.672 4.157.457 1.46.894 2.82 1.312 4.078l7.328 20.61c.5 1.386.727 2.62.688 3.702-.043 1.086-.668 2.133-1.875 3.141-1.211.96-2.383 1.398-3.516 1.313-1.125-.083-2.125-.77-3-2.063-.418-.633-.762-1.43-1.031-2.39a51.374 51.374 0 0 0-.89-2.813c-.313-.926-.762-1.617-1.345-2.078-.085-.082-.593-.164-1.53-.25a89.779 89.779 0 0 0-3.266-.219 48.532 48.532 0 0 0-3.375-.063c-1.024.024-1.657.137-1.907.344-.593.5-1.007 1.297-1.234 2.39a70.627 70.627 0 0 0-.625 3.36c-.188 1.149-.555 2.055-1.094 2.719-.75.918-1.758 1.46-3.015 1.625-1.25.164-2.438.086-3.563-.25zm12.406-18.734a22.233 22.233 0 0 0 1.72-.313 26.094 26.094 0 0 1 1.671-.312 275.05 275.05 0 0 1-.86-2.516 97.167 97.167 0 0 1-.78-2.5 295.56 295.56 0 0 0-.876 2.781c-.293.938-.586 1.89-.875 2.86zm0 0"/>
        <path id="d" d="M2.953-1.188C2.234-1.977 1.727-3 1.438-4.25a18.968 18.968 0 0 1-.47-4.047c-.023-1.445.02-2.848.126-4.203.101-1.363.176-2.523.218-3.484.083-1.125.125-2.489.125-4.094 0-1.613.051-3.317.157-5.11.101-1.8.32-3.554.656-5.265.332-1.719.844-3.223 1.531-4.516.696-1.289 1.63-2.234 2.797-2.828 1.25-.625 2.488-.789 3.719-.5a8.744 8.744 0 0 1 3.422 1.672c1.05.813 1.89 1.742 2.515 2.781a41.024 41.024 0 0 1 3.094 5.969 40.254 40.254 0 0 0 3.172 6c-.043-1-.137-2.133-.281-3.406a33.78 33.78 0 0 1-.219-3.89c0-1.313.156-2.563.469-3.75.312-1.196.863-2.212 1.656-3.048 1.05-1.093 2.16-1.648 3.328-1.672 1.164-.02 2.207.36 3.125 1.141.926.773 1.473 1.867 1.64 3.281.29 1.93.552 4.125.782 6.594.227 2.46.332 4.984.313 7.578a52.24 52.24 0 0 1-.594 7.516c-.375 2.43-1.008 4.578-1.89 6.453-.962 2.055-2.013 3.258-3.157 3.61-1.149.355-2.352.136-3.61-.657-1.25-.8-2.484-1.953-3.703-3.453a47.72 47.72 0 0 1-3.406-4.813 133.181 133.181 0 0 1-2.828-4.765 177.643 177.643 0 0 0-1.844-3.266 110.7 110.7 0 0 0-.469 2.578 101.1 101.1 0 0 1-.906 4.438 67.433 67.433 0 0 1-1.312 4.953c-.5 1.625-1.078 3.027-1.735 4.203C7.211-1.082 6.484-.352 5.672-.062c-.813.289-1.719-.083-2.719-1.125zm0 0"/>
        <path id="e" d="M14.219-.813a19.317 19.317 0 0 1-7.36-4.375c-2.105-2.007-3.683-4.394-4.734-7.156C1.082-15.227.707-18.098 1-20.954a21.277 21.277 0 0 1 2.5-8.093 24.013 24.013 0 0 1 5.39-6.672 21.64 21.64 0 0 1 7.532-4.265 31.06 31.06 0 0 1 3.75-.97 14.854 14.854 0 0 1 4.015-.25c1.301.106 2.38.532 3.235 1.282.851.75 1.32 1.984 1.406 3.703.082 1.625-.273 2.977-1.062 4.047-.793 1.063-1.828 1.93-3.11 2.594a23.567 23.567 0 0 1-4.047 1.656c-1.418.438-2.73.844-3.937 1.219-1 .969-1.89 2.058-2.672 3.265-.773 1.211-1.273 2.422-1.5 3.641-.23 1.211-.063 2.336.5 3.375.563 1.043 1.66 1.922 3.297 2.64 1 .419 2.05.712 3.156.876 1.113.168 2.18.336 3.203.5 1.02.168 1.938.449 2.75.844a3.846 3.846 0 0 1 1.828 1.828c.395.812.508 1.992.344 3.53-.168 1.669-.715 2.977-1.64 3.923a6.98 6.98 0 0 1-3.344 1.906c-1.313.336-2.703.445-4.172.344a18.383 18.383 0 0 1-4.203-.781Zm0 0"/>
        <path id="f" d="M8.906-1.188C7.852-.188 6.805.196 5.766-.03 4.723-.258 3.82-.832 3.062-1.75c-.75-.926-1.23-1.93-1.437-3.016-.418-2.082-.574-3.968-.469-5.656.102-1.695.133-3.613.094-5.75a604.05 604.05 0 0 0-.188-8.484c-.085-2.82-.125-5.633-.125-8.438 0-1.125.04-2.258.125-3.406.083-1.156.375-2.191.875-3.11.5-.913 1.36-1.6 2.579-2.062 1.664-.625 3.02-.77 4.062-.437 1.05.336 1.836.98 2.36 1.937.519.961.863 2.11 1.03 3.453.165 1.336.227 2.727.188 4.172a48.93 48.93 0 0 1-.281 4.063 170.23 170.23 0 0 0-.344 3.172 38.721 38.721 0 0 1 4.094-.032 88.32 88.32 0 0 0 4.047.094 109.504 109.504 0 0 0-.625-4.484 35.57 35.57 0 0 1-.438-4.703 15.856 15.856 0 0 1 .5-4.485c.332-1.207.977-2.312 1.938-3.312.969-1.008 2.086-1.641 3.36-1.891 1.28-.25 2.503.125 3.671 1.125.707.594 1.207 1.684 1.5 3.266.29 1.586.445 3.464.469 5.64.02 2.18-.031 4.469-.156 6.875a146.098 146.098 0 0 1-.532 6.985c-.23 2.25-.437 4.234-.625 5.953a822.97 822.97 0 0 0-.406 3.75c-.043.586-.148 1.383-.312 2.39-.168 1-.418 2-.75 3-.336 1-.766 1.852-1.297 2.547-.524.688-1.137 1.024-1.844 1-.71-.02-1.523-.554-2.438-1.61-1-1.163-1.59-2.57-1.765-4.218a23.974 23.974 0 0 1 .031-5.047c.195-1.719.317-3.242.36-4.578a30.66 30.66 0 0 1-2.641.188 40.726 40.726 0 0 0-3.203.25c-1.043.125-1.856.355-2.438.687-.75.418-1.105 1.047-1.062 1.89.039.837.039 1.794 0 2.876a80.09 80.09 0 0 0-.063 3.39c0 1.25-.136 2.465-.406 3.641-.273 1.168-.805 2.148-1.594 2.938zm0 0"/>
        <path id="g" d="M13.656-.125c-1.793.164-3.476.117-5.047-.156-1.562-.27-2.898-.906-4-1.906C3.504-3.196 2.72-4.66 2.25-6.579a39.357 39.357 0 0 1-.969-7.328c-.105-2.551-.117-5.11-.031-7.672.082-2.57.082-5.05 0-7.438A82.01 82.01 0 0 0 1-33.172a23.872 23.872 0 0 1 .031-4.422c.145-1.468.551-2.765 1.219-3.89a5.369 5.369 0 0 1 2.672-2.266c1.144-.457 2.394-.75 3.75-.875a38.16 38.16 0 0 1 4.047-.156c1.344.023 2.535.031 3.578.031a65.529 65.529 0 0 1 4.437.031c1.594.063 3.141.274 4.641.625 1.508.356 2.86.965 4.047 1.828 1.187.856 2.098 2.055 2.734 3.594a8.69 8.69 0 0 1 .469 5.281 14.944 14.944 0 0 1-2.172 5.063c-1.043 1.586-2.187 2.945-3.437 4.078 1.5 1.418 2.5 3.172 3 5.266.5 2.086.57 4.203.218 6.359-.355 2.148-1.117 4.04-2.28 5.672-1.638 2.25-3.763 3.883-6.376 4.89a31.475 31.475 0 0 1-7.922 1.938zm-2.687-28.64c.125.085.469.124 1.031.124.563 0 1.125-.03 1.688-.093a14.4 14.4 0 0 1 1.046-.094c.875-.082 1.832-.25 2.875-.5 1.04-.25 1.813-.79 2.313-1.625.383-.633.351-1.18-.094-1.64-.437-.458-1.094-.821-1.969-1.094a12.064 12.064 0 0 0-2.797-.5c-.98-.063-1.855 0-2.624.187-.774.188-1.262.531-1.47 1.031-.042.086-.085.465-.124 1.14a19.582 19.582 0 0 0-.031 1.97c.019.648.07 1.011.156 1.093zM10.594-9.47c1-.125 2.144-.32 3.437-.594 1.301-.269 2.473-.726 3.516-1.374 1.039-.645 1.707-1.551 2-2.72.3-1.132.164-1.984-.406-2.546-.563-.563-1.293-.938-2.188-1.125a10.292 10.292 0 0 0-2.594-.219c-.93.043-1.695.125-2.296.25-.606.125-1.075.5-1.407 1.125-.25.461-.367 1.152-.344 2.078.02.918.083 1.856.188 2.813.102.96.133 1.73.094 2.312zm0 0"/>
        <path id="h" d="M1.25-1.813c-.375-.925-.398-1.835-.063-2.734a4.647 4.647 0 0 1 1.657-2.187c.781-.563 1.597-.832 2.453-.813.851.024 1.594.512 2.219 1.469.664.625.937 1.312.812 2.062-.125.75-.469 1.465-1.031 2.141A5.617 5.617 0 0 1 5.266-.344c-.793.352-1.559.438-2.297.25-.73-.187-1.305-.758-1.719-1.718Zm0 0"/>
        <path id="i" d="M20.875-1c-1.805.668-3.719 1-5.75 1-2.023 0-3.887-.375-5.594-1.125-2.136-.957-3.652-2.29-4.547-4-.898-1.719-1.664-3.625-2.296-5.719a44.796 44.796 0 0 1-1.532-7.484c-.312-2.613-.261-5.129.157-7.547.414-2.426 1.351-4.598 2.812-6.516 1.469-1.925 3.602-3.39 6.406-4.39 2.926-1.051 5.735-1.344 8.422-.875 2.695.46 5.004 1.617 6.922 3.468 1.926 1.856 3.18 4.352 3.766 7.485.375 2.137.57 4.492.593 7.062a32.465 32.465 0 0 1-.843 7.61c-.586 2.511-1.57 4.761-2.953 6.75-1.375 1.98-3.231 3.406-5.563 4.281Zm-7.719-8.469c1.219 1.219 2.336 1.797 3.36 1.735 1.02-.063 1.906-.54 2.656-1.438.758-.906 1.305-1.96 1.64-3.172.208-.789.407-1.851.594-3.187.188-1.344.282-2.735.282-4.172 0-1.445-.188-2.766-.563-3.953-.375-1.188-1.008-2.035-1.89-2.547-.876-.5-1.837-.55-2.876-.156a8.466 8.466 0 0 0-2.828 1.797c-.836.792-1.375 1.562-1.625 2.312-.25.793-.437 1.79-.562 2.984a24.125 24.125 0 0 0-.094 3.703c.063 1.274.238 2.45.531 3.532.29 1.086.75 1.937 1.375 2.562zm0 0"/>
        <path id="j" d="M34.969-.313c-.875-.332-1.512-.894-1.907-1.687a8.27 8.27 0 0 1-.78-2.64 33.652 33.652 0 0 1-.25-2.563 85.984 85.984 0 0 1-.22-7.016 47.254 47.254 0 0 0-.468-7.031 67.766 67.766 0 0 0-2.735 2.89 21.572 21.572 0 0 1-3.328 2.985c-1.187.855-2.406 1.242-3.656 1.156a4.7 4.7 0 0 1-2.672-1.14c-.773-.664-1.48-1.5-2.125-2.5-.648-1-1.219-2.008-1.719-3.032-.5-1.03-.984-1.898-1.453-2.609-.71 1.586-1.136 3.297-1.281 5.14a93.194 93.194 0 0 0-.281 5.579 34.775 34.775 0 0 1-.563 5.515 11.832 11.832 0 0 1-2.187 4.954c-1.012 1.335-2.184 2-3.516 2-1.336 0-2.484-.688-3.453-2.063a8.132 8.132 0 0 1-1.281-3.578 17.738 17.738 0 0 1 0-3.969c.144-1.363.281-2.629.406-3.797.25-2.508.55-5.015.906-7.515.364-2.508.735-5 1.11-7.47.207-1.456.437-3.019.687-4.687.25-1.675.852-3.125 1.813-4.343 1.082-1.332 2.226-2.094 3.437-2.282 1.219-.187 2.442.024 3.672.625 1.238.606 2.41 1.434 3.516 2.485a32.679 32.679 0 0 1 3.03 3.281 41.693 41.693 0 0 1 2.267 3.047A58.36 58.36 0 0 1 24-33.688a35 35 0 0 1 2.781-3.468c1.032-1.133 2.117-2.078 3.266-2.828 1.156-.75 2.348-1.133 3.578-1.157 1.227-.02 2.473.512 3.734 1.594a5.747 5.747 0 0 1 1.72 2.484c.35.981.612 1.993.78 3.032.164 1.043.332 2.047.5 3.015.414 2.293.77 4.602 1.063 6.922a79.92 79.92 0 0 1 .562 6.985c.04.586.07 1.464.094 2.64a52.85 52.85 0 0 1-.094 3.89 36.342 36.342 0 0 1-.5 4.22c-.25 1.398-.636 2.64-1.156 3.734-.523 1.086-1.215 1.855-2.078 2.313-.855.457-1.95.457-3.281 0zm0 0"/>
    </defs>
    <use xlink:href="#a" x="21.324" y="196.948" fill="#8c52ff" transform="translate(-13.045 -94.052) scale(.64076)"/>
    <use xlink:href="#b" x="48.644" y="196.948" fill="#8c52ff" transform="translate(-13.045 -94.052) scale(.64076)"/>
    <use xlink:href="#c" x="83.797" y="196.948" fill="#8c52ff" transform="translate(-13.045 -94.052) scale(.64076)"/>
    <use xlink:href="#d" x="119.013" y="196.948" fill="#8c52ff" transform="translate(-13.045 -94.052) scale(.64076)"/>
    <use xlink:href="#e" x="151.409" y="196.948" fill="#8c52ff" transform="translate(-13.045 -94.052) scale(.64076)"/>
    <use xlink:href="#f" x="179.294" y="196.948" fill="#8c52ff" transform="translate(-13.045 -94.052) scale(.64076)"/>
    <use xlink:href="#g" x="208.745" y="196.948" fill="#8c52ff" transform="translate(-13.045 -94.052) scale(.64076)"/>
    <use xlink:href="#h" x="240.577" y="196.948" fill="#8c52ff" transform="translate(-13.045 -94.052) scale(.64076)"/>
    <use xlink:href="#e" x="247.971" y="196.948" fill="#8c52ff" transform="translate(-13.045 -94.052) scale(.64076)"/>
    <use xlink:href="#i" x="275.856" y="196.948" fill="#8c52ff" transform="translate(-13.045 -94.052) scale(.64076)"/>
    <use xlink:href="#j" x="305.181" y="196.948" fill="#8c52ff" transform="translate(-13.045 -94.052) scale(.64076)"/>
    <use xlink:href="#a" x="19.44" y="195.065" fill="#fd7f32" transform="translate(-13.045 -94.052) scale(.64076)"/>
    <use xlink:href="#b" x="46.761" y="195.065" fill="#fd7f32" transform="translate(-13.045 -94.052) scale(.64076)"/>
    <use xlink:href="#c" x="81.914" y="195.065" fill="#fd7f32" transform="translate(-13.045 -94.052) scale(.64076)"/>
    <use xlink:href="#d" x="117.13" y="195.065" fill="#fd7f32" transform="translate(-13.045 -94.052) scale(.64076)"/>
    <use xlink:href="#e" x="149.526" y="195.065" fill="#fd7f32" transform="translate(-13.045 -94.052) scale(.64076)"/>
    <use xlink:href="#f" x="177.411" y="195.065" fill="#fd7f32" transform="translate(-13.045 -94.052) scale(.64076)"/>
    <use xlink:href="#g" x="206.862" y="195.065" fill="#fd7f32" transform="translate(-13.045 -94.052) scale(.64076)"/>
    <use xlink:href="#h" x="238.694" y="195.065" fill="#fd7f32" transform="translate(-13.045 -94.052) scale(.64076)"/>
    <use xlink:href="#e" x="246.088" y="195.065" fill="#fd7f32" transform="translate(-13.045 -94.052) scale(.64076)"/>
    <use xlink:href="#i" x="273.972" y="195.065" fill="#fd7f32" transform="translate(-13.045 -94.052) scale(.64076)"/>
    <use xlink:href="#j" x="303.298" y="195.065" fill="#fd7f32" transform="translate(-13.045 -94.052) scale(.64076)"/>
</svg>
