<svg xmlns="http://www.w3.org/2000/svg" xml:space="preserve" width="48" height="48" viewBox="0 0 12.7 12.7">
  <path d="M4.205 11.811a.565.565 0 0 1-.286-.226c-.129-.253-.159-.488-.273-2.153l-.088-1.234a8.237 8.237 0 0 1-.032-.584c.017-.028.24-.019.437.019.186.035.426.115.658.22.615.277.756.338.894.387.2.07.474.128.618.128.358 0 .627-.13 1.054-.508.183-.16.204-.157.273.044.038.11.046.192.046.44 0 .27-.007.332-.062.51-.121.4-.372.846-.61 1.084-.26.26-.516.317-.78.175-.189-.1-.332-.279-.504-.624-.166-.335-.17-.31-.053.334.126.696.11 1.02-.067 1.376a1.278 1.278 0 0 1-.546.534c-.166.081-.195.088-.397.093a1.34 1.34 0 0 1-.282-.015zm-1.39-.434c-.067-.034-.077-.068-.09-.291-.024-.387.096-.827.392-1.446.12-.252.175-.345.188-.321.042.077.183.613.208.792a4.61 4.61 0 0 1-.032 1.039c-.048.22-.08.24-.373.247a1.045 1.045 0 0 1-.292-.02zm.307-3.927a13.484 13.484 0 0 0-.78-.017c-.882-.006-.908-.011-.899-.16a.45.45 0 0 1 .04-.15c.063-.121.252-.33.468-.514.235-.201.658-.524.699-.534.014-.004.07.111.127.265l.182.487c.078.211.212.604.212.624 0 .014-.035.013-.05-.001zm-.336-1.784c0-.147.037-.328.15-.73.146-.515.253-.943.292-1.17.062-.354.096-.397.256-.316.128.065.273.24.385.463.054.107.107.2.118.208.034.02.09-.116.136-.336.049-.237.148-1.021.171-1.363.02-.288.034-.329.12-.329.096 0 .244.145.375.366.192.326.316.499.397.554.074.05.08.051.122.014.059-.052.217-.391.32-.686.145-.414.216-.726.216-.95 0-.21.033-.29.107-.262a.216.216 0 0 0 .064.013c.017 0 .068.032.113.071.093.082.205.305.294.586.194.61.272.815.326.848.058.036.205-.274.523-1.102.137-.356.168-.418.256-.51.085-.09.182-.1.222-.024.017.03.034.251.046.583.028.778.066.983.207 1.101.054.046.085.056.138.045.29-.058.529-.41.784-1.157a4.93 4.93 0 0 1 .172-.458c.124-.19.509.197.72.722.175.432.247.818.248 1.322.001.859-.216 1.197-.859 1.339-.234.051-.856.05-1.458-.001-1.323-.114-1.56-.11-2.22.032-.873.188-1.574.484-2.413 1.02l-.3.19c-.02.012-.028-.01-.028-.083z" style="fill:#0091c1;fill-opacity:1;stroke-width:.0226516"/>
  <path d="M10.949 10.455c-.118-.074-.179-.179-.332-.57-.5-1.273-.99-2.057-1.804-2.884l-.353-.358-.013.256c-.015.294-.029.35-.093.383-.058.032-.332.03-.417-.003-.165-.062-.223-.18-.328-.664-.221-1.023-1.236-1.459-2.478-1.065-.313.1-.858.367-.996.488-.155.136-.18.198-.181.442-.001.208-.001.209.078.29.165.172.719.465 1.053.558.248.069.503.069.657 0 .21-.093.31-.236.384-.54.07-.291.232-.46.41-.426.102.019.163.102.18.25.035.276-.098.86-.245 1.079-.167.248-.598.389-.97.315a3.28 3.28 0 0 1-.482-.181c-.701-.317-1.059-.42-1.387-.404l-.208.011-.274-.73c-.15-.402-.273-.74-.273-.753 0-.026.331-.244.78-.514 1.422-.857 2.611-1.008 3.727-.474.9.431 2.092 1.531 2.88 2.66.475.677.928 1.541 1.116 2.125.106.328.119.43.069.535-.083.176-.35.268-.5.174zm-5.95-3.589a.49.49 0 0 1-.125-.868.456.456 0 0 1 .608.056c.175.17.205.39.081.601A.5.5 0 0 1 5 6.866ZM5 6.356a.133.133 0 0 0 .028-.07c0-.023-.021-.013-.068.032a.283.283 0 0 0-.067.082c0 .027.075-.005.107-.045zm-.019-.13c.014.008.025.01.025.003 0-.006-.021-.023-.047-.037-.067-.036-.157.026-.157.108v.06l.077-.074c.043-.042.089-.069.102-.06z" style="fill:#b3b3b3;fill-opacity:1;stroke-width:.0226516"/>
</svg>
